<svg xmlns="http://www.w3.org/2000/svg" viewBox="0 0 24 24" fill="none" stroke="currentColor" stroke-width="2" stroke-linecap="round" stroke-linejoin="round">
  <!-- Document/Text representation -->
  <path d="M14 2H6a2 2 0 0 0-2 2v16a2 2 0 0 0 2 2h12a2 2 0 0 0 2-2V8z"/>
  <polyline points="14,2 14,8 20,8"/>
  
  <!-- Template structure lines -->
  <line x1="16" y1="12" x2="8" y2="12"/>
  <line x1="16" y1="16" x2="8" y2="16"/>
  <line x1="16" y1="20" x2="8" y2="20"/>
  
  <!-- Variable placeholder -->
  <rect x="8" y="10" width="8" height="2" rx="1" fill="currentColor" opacity="0.3"/>
  
  <!-- Parse/Extract arrows -->
  <path d="M4 4l2 2-2 2" stroke="currentColor" stroke-width="1.5"/>
  <path d="M20 4l-2 2 2 2" stroke="currentColor" stroke-width="1.5"/>
  
  <!-- Data flow indicator -->
  <circle cx="12" cy="6" r="1" fill="currentColor"/>
</svg>
